<svg xmlns="http://www.w3.org/2000/svg" version="1.1" xmlns:xlink="http://www.w3.org/1999/xlink" xmlns:svgjs="http://svgjs.com/svgjs" width="1440" height="560" preserveAspectRatio="none" viewBox="0 0 1440 560">
    <g mask="url(&quot;#SvgjsMask1000&quot;)" fill="none">
        <rect width="1440" height="560" x="0" y="0" fill="#0e2a47"></rect>
        <path d="M72.2 81.53L137.16 119.03L137.16 194.03L72.2 231.53L7.25 194.03L7.25 119.03zM202.11 531.53L267.06 569.03L267.06 644.03L202.11 681.53L137.16 644.03L137.16 569.03zM332.02 81.53L396.97 119.03L396.97 194.03L332.02 231.53L267.06 194.03L267.06 119.03zM656.79 -30.97L721.74 6.53L721.74 81.53L656.79 119.03L591.83 81.53L591.83 6.53zM721.74 306.53L786.7 344.03L786.7 419.03L721.74 456.53L656.79 419.03L656.79 344.03zM1176.42 194.03L1241.37 231.53L1241.37 306.53L1176.42 344.03L1111.46 306.53L1111.46 231.53zM1176.42 419.03L1241.37 456.53L1241.37 531.53L1176.42 569.03L1111.46 531.53L1111.46 456.53zM1306.33 419.03L1371.28 456.53L1371.28 531.53L1306.33 569.03L1241.37 531.53L1241.37 456.53z" stroke="#03305d" stroke-width="2"></path>
        <path d="M64.7 81.53 a7.5 7.5 0 1 0 15 0 a7.5 7.5 0 1 0 -15 0zM129.66 119.03 a7.5 7.5 0 1 0 15 0 a7.5 7.5 0 1 0 -15 0zM129.66 194.03 a7.5 7.5 0 1 0 15 0 a7.5 7.5 0 1 0 -15 0zM64.7 231.53 a7.5 7.5 0 1 0 15 0 a7.5 7.5 0 1 0 -15 0zM-0.25 194.03 a7.5 7.5 0 1 0 15 0 a7.5 7.5 0 1 0 -15 0zM-0.25 119.03 a7.5 7.5 0 1 0 15 0 a7.5 7.5 0 1 0 -15 0zM194.61 531.53 a7.5 7.5 0 1 0 15 0 a7.5 7.5 0 1 0 -15 0zM259.56 569.03 a7.5 7.5 0 1 0 15 0 a7.5 7.5 0 1 0 -15 0zM259.56 644.03 a7.5 7.5 0 1 0 15 0 a7.5 7.5 0 1 0 -15 0zM194.61 681.53 a7.5 7.5 0 1 0 15 0 a7.5 7.5 0 1 0 -15 0zM129.66 644.03 a7.5 7.5 0 1 0 15 0 a7.5 7.5 0 1 0 -15 0zM129.66 569.03 a7.5 7.5 0 1 0 15 0 a7.5 7.5 0 1 0 -15 0zM324.52 81.53 a7.5 7.5 0 1 0 15 0 a7.5 7.5 0 1 0 -15 0zM389.47 119.03 a7.5 7.5 0 1 0 15 0 a7.5 7.5 0 1 0 -15 0zM389.47 194.03 a7.5 7.5 0 1 0 15 0 a7.5 7.5 0 1 0 -15 0zM324.52 231.53 a7.5 7.5 0 1 0 15 0 a7.5 7.5 0 1 0 -15 0zM259.56 194.03 a7.5 7.5 0 1 0 15 0 a7.5 7.5 0 1 0 -15 0zM259.56 119.03 a7.5 7.5 0 1 0 15 0 a7.5 7.5 0 1 0 -15 0zM649.29 -30.97 a7.5 7.5 0 1 0 15 0 a7.5 7.5 0 1 0 -15 0zM714.24 6.53 a7.5 7.5 0 1 0 15 0 a7.5 7.5 0 1 0 -15 0zM714.24 81.53 a7.5 7.5 0 1 0 15 0 a7.5 7.5 0 1 0 -15 0zM649.29 119.03 a7.5 7.5 0 1 0 15 0 a7.5 7.5 0 1 0 -15 0zM584.33 81.53 a7.5 7.5 0 1 0 15 0 a7.5 7.5 0 1 0 -15 0zM584.33 6.53 a7.5 7.5 0 1 0 15 0 a7.5 7.5 0 1 0 -15 0zM714.24 306.53 a7.5 7.5 0 1 0 15 0 a7.5 7.5 0 1 0 -15 0zM779.2 344.03 a7.5 7.5 0 1 0 15 0 a7.5 7.5 0 1 0 -15 0zM779.2 419.03 a7.5 7.5 0 1 0 15 0 a7.5 7.5 0 1 0 -15 0zM714.24 456.53 a7.5 7.5 0 1 0 15 0 a7.5 7.5 0 1 0 -15 0zM649.29 419.03 a7.5 7.5 0 1 0 15 0 a7.5 7.5 0 1 0 -15 0zM649.29 344.03 a7.5 7.5 0 1 0 15 0 a7.5 7.5 0 1 0 -15 0zM1168.92 194.03 a7.5 7.5 0 1 0 15 0 a7.5 7.5 0 1 0 -15 0zM1233.87 231.53 a7.5 7.5 0 1 0 15 0 a7.5 7.5 0 1 0 -15 0zM1233.87 306.53 a7.5 7.5 0 1 0 15 0 a7.5 7.5 0 1 0 -15 0zM1168.92 344.03 a7.5 7.5 0 1 0 15 0 a7.5 7.5 0 1 0 -15 0zM1103.96 306.53 a7.5 7.5 0 1 0 15 0 a7.5 7.5 0 1 0 -15 0zM1103.96 231.53 a7.5 7.5 0 1 0 15 0 a7.5 7.5 0 1 0 -15 0zM1168.92 419.03 a7.5 7.5 0 1 0 15 0 a7.5 7.5 0 1 0 -15 0zM1233.87 456.53 a7.5 7.5 0 1 0 15 0 a7.5 7.5 0 1 0 -15 0zM1233.87 531.53 a7.5 7.5 0 1 0 15 0 a7.5 7.5 0 1 0 -15 0zM1168.92 569.03 a7.5 7.5 0 1 0 15 0 a7.5 7.5 0 1 0 -15 0zM1103.96 531.53 a7.5 7.5 0 1 0 15 0 a7.5 7.5 0 1 0 -15 0zM1103.96 456.53 a7.5 7.5 0 1 0 15 0 a7.5 7.5 0 1 0 -15 0zM1298.83 419.03 a7.5 7.5 0 1 0 15 0 a7.5 7.5 0 1 0 -15 0zM1363.78 456.53 a7.5 7.5 0 1 0 15 0 a7.5 7.5 0 1 0 -15 0zM1363.78 531.53 a7.5 7.5 0 1 0 15 0 a7.5 7.5 0 1 0 -15 0zM1298.83 569.03 a7.5 7.5 0 1 0 15 0 a7.5 7.5 0 1 0 -15 0z" fill="#03305d"></path>
        <path d="M35.64 -15.04L78.94 9.96L78.94 59.96L35.64 84.96L-7.66 59.96L-7.66 9.96zM78.94 359.96L122.25 384.96L122.25 434.96L78.94 459.96L35.64 434.96L35.64 384.96zM78.94 509.96L122.25 534.96L122.25 584.96L78.94 609.96L35.64 584.96L35.64 534.96zM338.76 209.96L382.06 234.96L382.06 284.96L338.76 309.96L295.45 284.96L295.45 234.96zM338.76 509.96L382.06 534.96L382.06 584.96L338.76 609.96L295.45 584.96L295.45 534.96zM425.36 209.96L468.67 234.96L468.67 284.96L425.36 309.96L382.06 284.96L382.06 234.96zM382.06 434.96L425.36 459.96L425.36 509.96L382.06 534.96L338.76 509.96L338.76 459.96zM468.67 -15.04L511.97 9.96L511.97 59.96L468.67 84.96L425.36 59.96L425.36 9.96zM598.57 359.96L641.88 384.96L641.88 434.96L598.57 459.96L555.27 434.96L555.27 384.96zM728.48 -15.04L771.78 9.96L771.78 59.96L728.48 84.96L685.18 59.96L685.18 9.96zM815.09 434.96L858.39 459.96L858.39 509.96L815.09 534.96L771.78 509.96L771.78 459.96zM858.39 509.96L901.69 534.96L901.69 584.96L858.39 609.96L815.09 584.96L815.09 534.96zM988.3 134.96L1031.6 159.96L1031.6 209.96L988.3 234.96L944.99 209.96L944.99 159.96zM1031.6 509.96L1074.9 534.96L1074.9 584.96L1031.6 609.96L988.3 584.96L988.3 534.96zM1118.2 59.96L1161.51 84.96L1161.51 134.96L1118.2 159.96L1074.9 134.96L1074.9 84.96zM1118.2 359.96L1161.51 384.96L1161.51 434.96L1118.2 459.96L1074.9 434.96L1074.9 384.96zM1248.11 -15.04L1291.41 9.96L1291.41 59.96L1248.11 84.96L1204.81 59.96L1204.81 9.96zM1248.11 134.96L1291.41 159.96L1291.41 209.96L1248.11 234.96L1204.81 209.96L1204.81 159.96z" stroke="rgba(6, 80, 156, 0.93)" stroke-width="2"></path>
    </g>
    <defs>
        <mask id="SvgjsMask1000">
            <rect width="1440" height="560" fill="#ffffff"></rect>
        </mask>
    </defs>
</svg>